<svg width="120" height="120" viewBox="0 0 120 120" fill="none" xmlns="http://www.w3.org/2000/svg">
<rect width="120" height="120" rx="60" fill="#24252A"/>
<path d="M28.0664 28.277C28.3867 28.277 28.6133 28.3356 28.7461 28.4528C28.8789 28.5699 28.9453 28.7653 28.9453 29.0387V32.4371C28.9453 32.7106 28.8789 32.9059 28.7461 33.0231C28.6133 33.1403 28.3867 33.1989 28.0664 33.1989C27.7461 33.1989 27.5195 33.1403 27.3867 33.0231C27.2539 32.9059 27.1875 32.7106 27.1875 32.4371C27.1875 31.9684 27.0586 31.5504 26.8008 31.1832C26.5508 30.816 26.1797 30.5309 25.6875 30.3278C25.1953 30.1168 24.6094 30.0114 23.9297 30.0114C23.0625 30.0114 22.293 30.234 21.6211 30.6793C20.957 31.1246 20.4375 31.7614 20.0625 32.5895C19.6875 33.4176 19.5 34.3864 19.5 35.4957C19.5 36.6051 19.6758 37.5739 20.0273 38.402C20.3867 39.2223 20.8906 39.8551 21.5391 40.3004C22.1953 40.7457 22.9531 40.9684 23.8125 40.9684C25.1797 40.9684 26.3477 40.7457 27.3164 40.3004V37.6403H24.4219C24.1562 37.6403 23.9648 37.5817 23.8477 37.4645C23.7383 37.3395 23.6836 37.1324 23.6836 36.8434C23.6836 36.5543 23.7383 36.3512 23.8477 36.234C23.9648 36.109 24.1562 36.0465 24.4219 36.0465H29.4492C29.7148 36.0465 29.9023 36.109 30.0117 36.234C30.1289 36.3512 30.1875 36.5543 30.1875 36.8434C30.1875 37.1324 30.1289 37.3395 30.0117 37.4645C29.9023 37.5817 29.7148 37.6403 29.4492 37.6403H29.0742V40.7692C29.0742 41.152 28.9336 41.4215 28.6523 41.5778C28.0117 41.9449 27.2734 42.2262 26.4375 42.4215C25.6016 42.609 24.7266 42.7028 23.8125 42.7028C22.5938 42.7028 21.5156 42.4059 20.5781 41.8121C19.6484 41.2106 18.9258 40.3668 18.4102 39.2809C17.9023 38.1871 17.6484 36.9254 17.6484 35.4957C17.6484 34.0739 17.9102 32.816 18.4336 31.7223C18.9648 30.6285 19.6953 29.7809 20.625 29.1793C21.5625 28.5778 22.625 28.277 23.8125 28.277C24.5469 28.277 25.1953 28.3942 25.7578 28.6285C26.3281 28.8551 26.8047 29.1832 27.1875 29.6129V29.0387C27.1875 28.7653 27.2539 28.5699 27.3867 28.4528C27.5195 28.3356 27.7461 28.277 28.0664 28.277ZM38.4961 28.5348C39.4727 28.5348 40.3086 28.6989 41.0039 29.027C41.707 29.3551 42.2383 29.816 42.5977 30.4098C42.9648 31.0035 43.1484 31.6949 43.1484 32.484C43.1484 33.3746 42.8594 34.1285 42.2812 34.7457C41.7031 35.3629 40.9102 35.7848 39.9023 36.0114C40.3398 36.1832 40.7031 36.4606 40.9922 36.8434C41.2344 37.1637 41.4414 37.484 41.6133 37.8043C41.7852 38.1168 41.9766 38.5035 42.1875 38.9645C42.4062 39.441 42.5742 39.7887 42.6914 40.0074C42.9961 40.5699 43.3477 40.8512 43.7461 40.8512H44.0742C44.3398 40.8512 44.5273 40.9137 44.6367 41.0387C44.7539 41.1559 44.8125 41.359 44.8125 41.6481C44.8125 41.9371 44.7539 42.1442 44.6367 42.2692C44.5273 42.3864 44.3398 42.4449 44.0742 42.4449H43.2305C42.7617 42.4449 42.3633 42.3239 42.0352 42.0817C41.7148 41.8317 41.4023 41.4098 41.0977 40.816C40.9258 40.4723 40.7148 40.0192 40.4648 39.4567C40.2305 38.941 40.0391 38.5426 39.8906 38.2614C39.75 37.9723 39.5781 37.6871 39.375 37.4059C39.1406 37.0778 38.8594 36.8317 38.5312 36.6676C38.2031 36.4957 37.8086 36.4098 37.3477 36.4098H35.7539V40.8512H37.2773C37.543 40.8512 37.7305 40.9137 37.8398 41.0387C37.957 41.1559 38.0156 41.359 38.0156 41.6481C38.0156 41.9371 37.957 42.1442 37.8398 42.2692C37.7305 42.3864 37.543 42.4449 37.2773 42.4449H32.5664C32.3008 42.4449 32.1094 42.3864 31.9922 42.2692C31.8828 42.1442 31.8281 41.9371 31.8281 41.6481C31.8281 41.359 31.8828 41.1559 31.9922 41.0387C32.1094 40.9137 32.3008 40.8512 32.5664 40.8512H33.9961V30.1285H32.5664C32.3008 30.1285 32.1094 30.0699 31.9922 29.9528C31.8828 29.8278 31.8281 29.6207 31.8281 29.3317C31.8281 29.0426 31.8828 28.8395 31.9922 28.7223C32.1094 28.5973 32.3008 28.5348 32.5664 28.5348H38.4961ZM35.7539 34.816H38.1328C40.2422 34.816 41.2969 34.0387 41.2969 32.484C41.2969 31.734 41.0312 31.1559 40.5 30.7496C39.9688 30.3356 39.2188 30.1285 38.25 30.1285H35.7539V34.816ZM52.4766 28.277C53.6953 28.277 54.7695 28.5778 55.6992 29.1793C56.6367 29.7809 57.3594 30.6285 57.8672 31.7223C58.3828 32.8082 58.6406 34.066 58.6406 35.4957C58.6406 36.9254 58.3828 38.1871 57.8672 39.2809C57.3594 40.3668 56.6367 41.2106 55.6992 41.8121C54.7695 42.4059 53.6953 42.7028 52.4766 42.7028C51.2578 42.7028 50.1797 42.4059 49.2422 41.8121C48.3125 41.2106 47.5898 40.3668 47.0742 39.2809C46.5664 38.1871 46.3125 36.9254 46.3125 35.4957C46.3125 34.066 46.5664 32.8082 47.0742 31.7223C47.5898 30.6285 48.3125 29.7809 49.2422 29.1793C50.1797 28.5778 51.2578 28.277 52.4766 28.277ZM52.4766 30.0114C51.6172 30.0114 50.8594 30.234 50.2031 30.6793C49.5547 31.1246 49.0508 31.7614 48.6914 32.5895C48.3398 33.4176 48.1641 34.3864 48.1641 35.4957C48.1641 36.6051 48.3398 37.5739 48.6914 38.402C49.0508 39.2223 49.5547 39.8551 50.2031 40.3004C50.8594 40.7457 51.6172 40.9684 52.4766 40.9684C53.3359 40.9684 54.0898 40.7457 54.7383 40.3004C55.3945 39.8551 55.8984 39.2223 56.25 38.402C56.6094 37.5739 56.7891 36.6051 56.7891 35.4957C56.7891 34.3864 56.6094 33.4176 56.25 32.5895C55.8984 31.7614 55.3945 31.1246 54.7383 30.6793C54.0898 30.234 53.3359 30.0114 52.4766 30.0114ZM66.8672 28.277C68.0859 28.277 69.1602 28.5778 70.0898 29.1793C71.0273 29.7809 71.75 30.6285 72.2578 31.7223C72.7734 32.8082 73.0312 34.066 73.0312 35.4957C73.0312 36.9254 72.7734 38.1871 72.2578 39.2809C71.75 40.3668 71.0273 41.2106 70.0898 41.8121C69.1602 42.4059 68.0859 42.7028 66.8672 42.7028C65.6484 42.7028 64.5703 42.4059 63.6328 41.8121C62.7031 41.2106 61.9805 40.3668 61.4648 39.2809C60.957 38.1871 60.7031 36.9254 60.7031 35.4957C60.7031 34.066 60.957 32.8082 61.4648 31.7223C61.9805 30.6285 62.7031 29.7809 63.6328 29.1793C64.5703 28.5778 65.6484 28.277 66.8672 28.277ZM66.8672 30.0114C66.0078 30.0114 65.25 30.234 64.5938 30.6793C63.9453 31.1246 63.4414 31.7614 63.082 32.5895C62.7305 33.4176 62.5547 34.3864 62.5547 35.4957C62.5547 36.6051 62.7305 37.5739 63.082 38.402C63.4414 39.2223 63.9453 39.8551 64.5938 40.3004C65.25 40.7457 66.0078 40.9684 66.8672 40.9684C67.7266 40.9684 68.4805 40.7457 69.1289 40.3004C69.7852 39.8551 70.2891 39.2223 70.6406 38.402C71 37.5739 71.1797 36.6051 71.1797 35.4957C71.1797 34.3864 71 33.4176 70.6406 32.5895C70.2891 31.7614 69.7852 31.1246 69.1289 30.6793C68.4805 30.234 67.7266 30.0114 66.8672 30.0114ZM87.5977 28.5348C87.8633 28.5348 88.0508 28.5973 88.1602 28.7223C88.2773 28.8395 88.3359 29.0426 88.3359 29.3317C88.3359 29.6207 88.2773 29.8278 88.1602 29.9528C88.0508 30.0699 87.8633 30.1285 87.5977 30.1285H86.6953L82.4883 41.941C82.3867 42.2145 82.2344 42.4098 82.0312 42.527C81.8359 42.6442 81.5664 42.7028 81.2227 42.7028C80.8867 42.7028 80.6172 42.6403 80.4141 42.5153C80.2188 42.3981 80.0742 42.2067 79.9805 41.941L75.8086 30.1285H74.918C74.6523 30.1285 74.4609 30.0699 74.3438 29.9528C74.2344 29.8278 74.1797 29.6207 74.1797 29.3317C74.1797 29.0426 74.2344 28.8395 74.3438 28.7223C74.4609 28.5973 74.6523 28.5348 74.918 28.5348H79.3008C79.5664 28.5348 79.7539 28.5973 79.8633 28.7223C79.9805 28.8395 80.0391 29.0426 80.0391 29.3317C80.0391 29.6207 79.9805 29.8278 79.8633 29.9528C79.7539 30.0699 79.5664 30.1285 79.3008 30.1285H77.6484L81.2344 40.4879L84.8555 30.1285H83.6836C83.418 30.1285 83.2266 30.0699 83.1094 29.9528C83 29.8278 82.9453 29.6207 82.9453 29.3317C82.9453 29.0426 83 28.8395 83.1094 28.7223C83.2266 28.5973 83.418 28.5348 83.6836 28.5348H87.5977ZM100.465 37.4059C100.785 37.4059 101.012 37.4645 101.145 37.5817C101.277 37.6989 101.344 37.8942 101.344 38.1676V41.6481C101.344 41.9371 101.285 42.1442 101.168 42.2692C101.059 42.3864 100.871 42.4449 100.605 42.4449H90.1289C89.8633 42.4449 89.6719 42.3864 89.5547 42.2692C89.4453 42.1442 89.3906 41.9371 89.3906 41.6481C89.3906 41.359 89.4453 41.1559 89.5547 41.0387C89.6719 40.9137 89.8633 40.8512 90.1289 40.8512H91.3242V30.1285H90.1289C89.8633 30.1285 89.6719 30.0699 89.5547 29.9528C89.4453 29.8278 89.3906 29.6207 89.3906 29.3317C89.3906 29.0426 89.4453 28.8395 89.5547 28.7223C89.6719 28.5973 89.8633 28.5348 90.1289 28.5348H100.371C100.637 28.5348 100.824 28.5973 100.934 28.7223C101.051 28.8395 101.109 29.0426 101.109 29.3317V32.3082C101.109 32.5817 101.043 32.777 100.91 32.8942C100.777 33.0114 100.551 33.0699 100.23 33.0699C99.9102 33.0699 99.6836 33.0114 99.5508 32.8942C99.418 32.777 99.3516 32.5817 99.3516 32.3082V30.1285H93.082V34.4762H96.1055V33.4098C96.1055 33.1364 96.1641 32.941 96.2812 32.8239C96.4062 32.7067 96.625 32.6481 96.9375 32.6481C97.25 32.6481 97.4648 32.7067 97.582 32.8239C97.707 32.941 97.7695 33.1364 97.7695 33.4098V37.1364C97.7695 37.4098 97.707 37.6051 97.582 37.7223C97.4648 37.8395 97.25 37.8981 96.9375 37.8981C96.625 37.8981 96.4062 37.8395 96.2812 37.7223C96.1641 37.6051 96.1055 37.4098 96.1055 37.1364V36.0699H93.082V40.8512H99.5859V38.1676C99.5859 37.8942 99.6523 37.6989 99.7852 37.5817C99.918 37.4645 100.145 37.4059 100.465 37.4059Z" fill="white"/>
<path d="M79.9318 64.6275H81.5702V68.3724H79.9318V64.6275ZM76.7032 69.4688H78.3416V63.5311H76.7032V69.4688ZM73.5289 72.5401H75.1673V60.4598H73.5289V72.5401ZM70.5112 74.9101H72.1496V58.2004H70.5112V74.906V74.9101ZM67.2806 70.8294H68.919V62.1705H67.2806V70.8294ZM63.9988 77.3815H65.6372V55.2479H63.9936V77.3815H63.9988ZM60.7692 80.5549H62.4076V52.4449H60.7692V80.5549ZM57.5948 76.2152H59.2332V56.7846H57.5948V76.2153V76.2152ZM54.3109 70.6973H55.9493V62.5072H54.3109V70.6973ZM51.1367 68.7449H52.7751V64.2478H51.1367V68.7523V68.7449ZM47.9623 71.1508H49.6007V61.8459H47.9623V71.1539V71.1508ZM44.8392 75.6552H46.4776V56.8122H44.8393V75.6585L44.8392 75.6552ZM41.6649 72.7765H43.3033V60.0616H41.6649V72.7797V72.7765ZM38.4302 69.4688H40.0686V63.5311H38.4302V69.4688Z" fill="white"/>
<path d="M24.7119 88.3387C24.7939 88.3387 24.8525 88.3534 24.8877 88.3827C24.9258 88.412 24.9448 88.4618 24.9448 88.5321C24.9448 88.576 24.9419 88.6112 24.936 88.6376L24.7295 89.7977C24.7119 89.9003 24.6738 89.9735 24.6152 90.0175C24.5596 90.0614 24.4717 90.0834 24.3516 90.0834C24.249 90.0834 24.1743 90.0687 24.1274 90.0394C24.0835 90.0072 24.0615 89.9559 24.0615 89.8856C24.0615 89.868 24.0645 89.8387 24.0703 89.7977L24.2241 88.9364H21.873L21.5698 90.6547H22.6685L22.7388 90.2548C22.7593 90.1522 22.7974 90.079 22.853 90.035C22.9116 89.9911 23.001 89.9691 23.1211 89.9691C23.2207 89.9691 23.2925 89.9852 23.3364 90.0175C23.3833 90.0468 23.4067 90.0951 23.4067 90.1625C23.4067 90.2006 23.4038 90.2313 23.3979 90.2548L23.1519 91.6522C23.1343 91.7548 23.0962 91.828 23.0376 91.8719C22.9819 91.9159 22.894 91.9379 22.7739 91.9379C22.6714 91.9379 22.5967 91.9232 22.5498 91.8939C22.5059 91.8617 22.4839 91.8104 22.4839 91.7401C22.4839 91.7225 22.4868 91.6932 22.4927 91.6522L22.563 91.2523H21.4644L21.1611 92.9574H22.1807C22.2627 92.9574 22.3213 92.972 22.3564 93.0013C22.3945 93.0306 22.4136 93.0804 22.4136 93.1508C22.4136 93.1947 22.4106 93.2299 22.4048 93.2562C22.3872 93.3646 22.3535 93.4423 22.3037 93.4891C22.2539 93.5331 22.1792 93.5551 22.0796 93.5551H19.8208C19.7388 93.5551 19.6787 93.5404 19.6406 93.5111C19.6025 93.4789 19.5835 93.4276 19.5835 93.3573C19.5835 93.3368 19.5864 93.3031 19.5923 93.2562C19.6128 93.1478 19.6479 93.0717 19.6978 93.0277C19.7476 92.9808 19.8223 92.9574 19.9219 92.9574H20.502L21.2139 88.9364H20.6338C20.5518 88.9364 20.4917 88.9218 20.4536 88.8925C20.4185 88.8632 20.4009 88.8134 20.4009 88.743C20.4009 88.6991 20.4038 88.6639 20.4097 88.6376C20.4302 88.5292 20.4653 88.453 20.5151 88.4091C20.5649 88.3622 20.6396 88.3387 20.7393 88.3387H24.7119ZM29.9766 88.3387C30.0586 88.3387 30.1172 88.3534 30.1523 88.3827C30.1904 88.412 30.2095 88.4618 30.2095 88.5321C30.2095 88.576 30.2065 88.6112 30.2007 88.6376L30.0029 89.7538C29.9854 89.8563 29.9473 89.9296 29.8887 89.9735C29.833 90.0175 29.7451 90.0394 29.625 90.0394C29.5225 90.0394 29.4478 90.0248 29.4009 89.9955C29.3569 89.9633 29.335 89.912 29.335 89.8417C29.335 89.8241 29.3379 89.7948 29.3438 89.7538L29.4888 88.9364H27.1377L26.8477 90.5668H27.9463L28.0166 90.1669C28.0371 90.0643 28.0752 89.9911 28.1309 89.9471C28.1895 89.9032 28.2788 89.8812 28.3989 89.8812C28.4985 89.8812 28.5703 89.8973 28.6143 89.9296C28.6611 89.9589 28.6846 90.0072 28.6846 90.0746C28.6846 90.1127 28.6816 90.1434 28.6758 90.1669L28.4297 91.5643C28.4121 91.6669 28.374 91.7401 28.3154 91.7841C28.2598 91.828 28.1719 91.85 28.0518 91.85C27.9492 91.85 27.8745 91.8353 27.8276 91.806C27.7837 91.7738 27.7617 91.7225 27.7617 91.6522C27.7617 91.6346 27.7646 91.6053 27.7705 91.5643L27.8408 91.1644H26.7422L26.4258 92.9574H28.8647L29.0449 91.951C29.0625 91.8485 29.0991 91.7753 29.1548 91.7313C29.2134 91.6874 29.3027 91.6654 29.4229 91.6654C29.5254 91.6654 29.5986 91.6815 29.6426 91.7137C29.6895 91.743 29.7129 91.7928 29.7129 91.8632C29.7129 91.8807 29.71 91.91 29.7041 91.951L29.4712 93.2562C29.4536 93.3646 29.4199 93.4423 29.3701 93.4891C29.3203 93.5331 29.2456 93.5551 29.146 93.5551H25.2173C25.1353 93.5551 25.0752 93.5404 25.0371 93.5111C24.999 93.4789 24.98 93.4276 24.98 93.3573C24.98 93.3368 24.9829 93.3031 24.9888 93.2562C25.0093 93.1478 25.0444 93.0717 25.0942 93.0277C25.144 92.9808 25.2188 92.9574 25.3184 92.9574H25.7666L26.4785 88.9364H26.0303C25.9482 88.9364 25.8882 88.9218 25.8501 88.8925C25.8149 88.8632 25.7974 88.8134 25.7974 88.743C25.7974 88.6991 25.8003 88.6639 25.8062 88.6376C25.8267 88.5292 25.8618 88.453 25.9116 88.4091C25.9614 88.3622 26.0361 88.3387 26.1357 88.3387H29.9766ZM35.373 88.3387C35.4551 88.3387 35.5137 88.3534 35.5488 88.3827C35.5869 88.412 35.606 88.4618 35.606 88.5321C35.606 88.576 35.603 88.6112 35.5972 88.6376L35.3994 89.7538C35.3818 89.8563 35.3438 89.9296 35.2852 89.9735C35.2295 90.0175 35.1416 90.0394 35.0215 90.0394C34.9189 90.0394 34.8442 90.0248 34.7974 89.9955C34.7534 89.9633 34.7314 89.912 34.7314 89.8417C34.7314 89.8241 34.7344 89.7948 34.7402 89.7538L34.8853 88.9364H32.5342L32.2441 90.5668H33.3428L33.4131 90.1669C33.4336 90.0643 33.4717 89.9911 33.5273 89.9471C33.5859 89.9032 33.6753 89.8812 33.7954 89.8812C33.895 89.8812 33.9668 89.8973 34.0107 89.9296C34.0576 89.9589 34.0811 90.0072 34.0811 90.0746C34.0811 90.1127 34.0781 90.1434 34.0723 90.1669L33.8262 91.5643C33.8086 91.6669 33.7705 91.7401 33.7119 91.7841C33.6562 91.828 33.5684 91.85 33.4482 91.85C33.3457 91.85 33.271 91.8353 33.2241 91.806C33.1802 91.7738 33.1582 91.7225 33.1582 91.6522C33.1582 91.6346 33.1611 91.6053 33.167 91.5643L33.2373 91.1644H32.1387L31.8223 92.9574H34.2612L34.4414 91.951C34.459 91.8485 34.4956 91.7753 34.5513 91.7313C34.6099 91.6874 34.6992 91.6654 34.8193 91.6654C34.9219 91.6654 34.9951 91.6815 35.0391 91.7137C35.0859 91.743 35.1094 91.7928 35.1094 91.8632C35.1094 91.8807 35.1064 91.91 35.1006 91.951L34.8677 93.2562C34.8501 93.3646 34.8164 93.4423 34.7666 93.4891C34.7168 93.5331 34.6421 93.5551 34.5425 93.5551H30.6138C30.5317 93.5551 30.4717 93.5404 30.4336 93.5111C30.3955 93.4789 30.3765 93.4276 30.3765 93.3573C30.3765 93.3368 30.3794 93.3031 30.3853 93.2562C30.4058 93.1478 30.4409 93.0717 30.4907 93.0277C30.5405 92.9808 30.6152 92.9574 30.7148 92.9574H31.1631L31.875 88.9364H31.4268C31.3447 88.9364 31.2847 88.9218 31.2466 88.8925C31.2114 88.8632 31.1938 88.8134 31.1938 88.743C31.1938 88.6991 31.1968 88.6639 31.2026 88.6376C31.2231 88.5292 31.2583 88.453 31.3081 88.4091C31.3579 88.3622 31.4326 88.3387 31.5322 88.3387H35.373ZM39.3633 88.3387C39.4453 88.3387 39.5039 88.3534 39.5391 88.3827C39.5771 88.412 39.5962 88.4618 39.5962 88.5321C39.5962 88.576 39.5933 88.6112 39.5874 88.6376C39.5669 88.746 39.5317 88.8236 39.4819 88.8705C39.4321 88.9144 39.3574 88.9364 39.2578 88.9364H38.1943L37.4824 92.9574H39.6577L39.9126 91.5116C39.9331 91.4091 39.9712 91.3358 40.0269 91.2919C40.0854 91.2479 40.1748 91.226 40.2949 91.226C40.3945 91.226 40.4663 91.2421 40.5103 91.2743C40.5571 91.3036 40.5806 91.3519 40.5806 91.4193C40.5806 91.4574 40.5776 91.4882 40.5718 91.5116L40.2642 93.2562C40.2466 93.3646 40.2129 93.4423 40.1631 93.4891C40.1133 93.5331 40.0386 93.5551 39.939 93.5551H36.0103C35.9282 93.5551 35.8682 93.5404 35.8301 93.5111C35.792 93.4789 35.7729 93.4276 35.7729 93.3573C35.7729 93.3368 35.7759 93.3031 35.7817 93.2562C35.8022 93.1478 35.8374 93.0717 35.8872 93.0277C35.937 92.9808 36.0117 92.9574 36.1113 92.9574H36.8232L37.5352 88.9364H36.8232C36.7412 88.9364 36.6812 88.9218 36.6431 88.8925C36.6079 88.8632 36.5903 88.8134 36.5903 88.743C36.5903 88.6991 36.5933 88.6639 36.5991 88.6376C36.6196 88.5292 36.6548 88.453 36.7046 88.4091C36.7544 88.3622 36.8291 88.3387 36.9287 88.3387H39.3633ZM57.0732 88.3387C57.1553 88.3387 57.2139 88.3534 57.249 88.3827C57.2871 88.412 57.3062 88.4618 57.3062 88.5321C57.3062 88.576 57.3032 88.6112 57.2974 88.6376L57.0029 90.2943C56.9854 90.3969 56.9473 90.4701 56.8887 90.514C56.833 90.558 56.7451 90.58 56.625 90.58C56.5225 90.58 56.4478 90.5653 56.4009 90.536C56.3569 90.5038 56.335 90.4525 56.335 90.3822C56.335 90.3646 56.3379 90.3353 56.3438 90.2943L56.5854 88.9364H55.4121L54.7002 92.9574H55.7812C55.8633 92.9574 55.9219 92.972 55.957 93.0013C55.9951 93.0306 56.0142 93.0804 56.0142 93.1508C56.0142 93.1947 56.0112 93.2299 56.0054 93.2562C55.9878 93.3646 55.9541 93.4423 55.9043 93.4891C55.8545 93.5331 55.7798 93.5551 55.6802 93.5551H52.9468C52.8647 93.5551 52.8047 93.5404 52.7666 93.5111C52.7285 93.4789 52.7095 93.4276 52.7095 93.3573C52.7095 93.3368 52.7124 93.3031 52.7183 93.2562C52.7388 93.1478 52.7739 93.0717 52.8237 93.0277C52.8735 92.9808 52.9482 92.9574 53.0479 92.9574H54.041L54.7529 88.9364H53.5796L53.3379 90.2943C53.3203 90.3969 53.2822 90.4701 53.2236 90.514C53.168 90.558 53.0801 90.58 52.96 90.58C52.8574 90.58 52.7827 90.5653 52.7358 90.536C52.6919 90.5038 52.6699 90.4525 52.6699 90.3822C52.6699 90.3646 52.6729 90.3353 52.6787 90.2943L52.9731 88.6376C52.9937 88.5292 53.0288 88.453 53.0786 88.4091C53.1284 88.3622 53.2031 88.3387 53.3027 88.3387H57.0732ZM62.6543 88.3387C62.7363 88.3387 62.7949 88.3534 62.8301 88.3827C62.8682 88.412 62.8872 88.4618 62.8872 88.5321C62.8872 88.576 62.8843 88.6112 62.8784 88.6376C62.8579 88.746 62.8228 88.8236 62.7729 88.8705C62.7231 88.9144 62.6484 88.9364 62.5488 88.9364H62.2324L61.5205 92.9574H61.8369C61.9189 92.9574 61.9775 92.972 62.0127 93.0013C62.0508 93.0306 62.0698 93.0804 62.0698 93.1508C62.0698 93.1947 62.0669 93.2299 62.061 93.2562C62.0435 93.3646 62.0098 93.4423 61.96 93.4891C61.9102 93.5331 61.8354 93.5551 61.7358 93.5551H60.356C60.2739 93.5551 60.2139 93.5404 60.1758 93.5111C60.1377 93.4789 60.1187 93.4276 60.1187 93.3573C60.1187 93.3368 60.1216 93.3031 60.1274 93.2562C60.1479 93.1478 60.1831 93.0717 60.2329 93.0277C60.2827 92.9808 60.3574 92.9574 60.457 92.9574H60.8613L61.1777 91.1644H58.9893L58.6729 92.9574H59.0771C59.1592 92.9574 59.2178 92.972 59.2529 93.0013C59.291 93.0306 59.3101 93.0804 59.3101 93.1508C59.3101 93.1947 59.3071 93.2299 59.3013 93.2562C59.2837 93.3646 59.25 93.4423 59.2002 93.4891C59.1504 93.5331 59.0757 93.5551 58.9761 93.5551H57.5962C57.5142 93.5551 57.4541 93.5404 57.416 93.5111C57.3779 93.4789 57.3589 93.4276 57.3589 93.3573C57.3589 93.3368 57.3618 93.3031 57.3677 93.2562C57.3882 93.1478 57.4233 93.0717 57.4731 93.0277C57.5229 92.9808 57.5977 92.9574 57.6973 92.9574H58.0137L58.7256 88.9364H58.4092C58.3271 88.9364 58.2671 88.9218 58.229 88.8925C58.1938 88.8632 58.1763 88.8134 58.1763 88.743C58.1763 88.6991 58.1792 88.6639 58.1851 88.6376C58.2056 88.5292 58.2407 88.453 58.2905 88.4091C58.3403 88.3622 58.415 88.3387 58.5146 88.3387H59.8945C59.9766 88.3387 60.0352 88.3534 60.0703 88.3827C60.1084 88.412 60.1274 88.4618 60.1274 88.5321C60.1274 88.576 60.1245 88.6112 60.1187 88.6376C60.0981 88.746 60.063 88.8236 60.0132 88.8705C59.9634 88.9144 59.8887 88.9364 59.7891 88.9364H59.3848L59.0947 90.5668H61.2832L61.5732 88.9364H61.1689C61.0869 88.9364 61.0269 88.9218 60.9888 88.8925C60.9536 88.8632 60.936 88.8134 60.936 88.743C60.936 88.6991 60.939 88.6639 60.9448 88.6376C60.9653 88.5292 61.0005 88.453 61.0503 88.4091C61.1001 88.3622 61.1748 88.3387 61.2744 88.3387H62.6543ZM67.752 88.3387C67.834 88.3387 67.8926 88.3534 67.9277 88.3827C67.9658 88.412 67.9849 88.4618 67.9849 88.5321C67.9849 88.576 67.9819 88.6112 67.9761 88.6376L67.7783 89.7538C67.7607 89.8563 67.7227 89.9296 67.6641 89.9735C67.6084 90.0175 67.5205 90.0394 67.4004 90.0394C67.2979 90.0394 67.2231 90.0248 67.1763 89.9955C67.1323 89.9633 67.1104 89.912 67.1104 89.8417C67.1104 89.8241 67.1133 89.7948 67.1191 89.7538L67.2642 88.9364H64.9131L64.623 90.5668H65.7217L65.792 90.1669C65.8125 90.0643 65.8506 89.9911 65.9062 89.9471C65.9648 89.9032 66.0542 89.8812 66.1743 89.8812C66.2739 89.8812 66.3457 89.8973 66.3896 89.9296C66.4365 89.9589 66.46 90.0072 66.46 90.0746C66.46 90.1127 66.457 90.1434 66.4512 90.1669L66.2051 91.5643C66.1875 91.6669 66.1494 91.7401 66.0908 91.7841C66.0352 91.828 65.9473 91.85 65.8271 91.85C65.7246 91.85 65.6499 91.8353 65.603 91.806C65.5591 91.7738 65.5371 91.7225 65.5371 91.6522C65.5371 91.6346 65.54 91.6053 65.5459 91.5643L65.6162 91.1644H64.5176L64.2012 92.9574H66.6401L66.8203 91.951C66.8379 91.8485 66.8745 91.7753 66.9302 91.7313C66.9888 91.6874 67.0781 91.6654 67.1982 91.6654C67.3008 91.6654 67.374 91.6815 67.418 91.7137C67.4648 91.743 67.4883 91.7928 67.4883 91.8632C67.4883 91.8807 67.4854 91.91 67.4795 91.951L67.2466 93.2562C67.229 93.3646 67.1953 93.4423 67.1455 93.4891C67.0957 93.5331 67.021 93.5551 66.9214 93.5551H62.9927C62.9106 93.5551 62.8506 93.5404 62.8125 93.5111C62.7744 93.4789 62.7554 93.4276 62.7554 93.3573C62.7554 93.3368 62.7583 93.3031 62.7642 93.2562C62.7847 93.1478 62.8198 93.0717 62.8696 93.0277C62.9194 92.9808 62.9941 92.9574 63.0938 92.9574H63.542L64.2539 88.9364H63.8057C63.7236 88.9364 63.6636 88.9218 63.6255 88.8925C63.5903 88.8632 63.5728 88.8134 63.5728 88.743C63.5728 88.6991 63.5757 88.6639 63.5815 88.6376C63.6021 88.5292 63.6372 88.453 63.687 88.4091C63.7368 88.3622 63.8115 88.3387 63.9111 88.3387H67.752ZM82.2583 88.3387C82.7153 88.3387 83.064 88.4486 83.3042 88.6683C83.5474 88.8881 83.6689 89.1869 83.6689 89.5648C83.6689 89.8402 83.5972 90.0819 83.4536 90.2899C83.313 90.495 83.1182 90.6635 82.8691 90.7953C83.1123 90.8802 83.2998 91.0165 83.4316 91.204C83.5664 91.3885 83.6338 91.6156 83.6338 91.8851C83.6338 92.1986 83.5591 92.4828 83.4097 92.7377C83.2603 92.9896 83.0405 93.1888 82.7505 93.3353C82.4634 93.4818 82.1191 93.5551 81.7178 93.5551H79.1821C79.1001 93.5551 79.04 93.5404 79.002 93.5111C78.9639 93.4789 78.9448 93.4276 78.9448 93.3573C78.9448 93.3368 78.9478 93.3031 78.9536 93.2562C78.9741 93.1478 79.0093 93.0717 79.0591 93.0277C79.1089 92.9808 79.1836 92.9574 79.2832 92.9574H79.8193L80.5312 88.9364H79.9951C79.9131 88.9364 79.853 88.9218 79.8149 88.8925C79.7798 88.8632 79.7622 88.8134 79.7622 88.743C79.7622 88.6991 79.7651 88.6639 79.771 88.6376C79.7915 88.5292 79.8267 88.453 79.8765 88.4091C79.9263 88.3622 80.001 88.3387 80.1006 88.3387H82.2583ZM80.9048 90.5624H81.8145C82.0635 90.5624 82.2773 90.5228 82.4561 90.4437C82.6348 90.3617 82.7695 90.2489 82.8604 90.1053C82.9512 89.9618 82.9966 89.7977 82.9966 89.6132C82.9966 89.162 82.7124 88.9364 82.144 88.9364H81.1904L80.9048 90.5624ZM80.4785 92.9574H81.6431C82.0532 92.9574 82.3726 92.8622 82.6011 92.6718C82.8296 92.4813 82.9438 92.222 82.9438 91.8939C82.9438 91.6449 82.8647 91.4603 82.7065 91.3402C82.5483 91.2201 82.3081 91.16 81.9858 91.16H80.7993L80.4785 92.9574ZM89.3379 88.3387C89.4199 88.3387 89.4785 88.3534 89.5137 88.3827C89.5518 88.412 89.5708 88.4618 89.5708 88.5321C89.5708 88.576 89.5679 88.6112 89.562 88.6376L89.3643 89.7538C89.3467 89.8563 89.3086 89.9296 89.25 89.9735C89.1943 90.0175 89.1064 90.0394 88.9863 90.0394C88.8838 90.0394 88.8091 90.0248 88.7622 89.9955C88.7183 89.9633 88.6963 89.912 88.6963 89.8417C88.6963 89.8241 88.6992 89.7948 88.7051 89.7538L88.8501 88.9364H86.499L86.209 90.5668H87.3076L87.3779 90.1669C87.3984 90.0643 87.4365 89.9911 87.4922 89.9471C87.5508 89.9032 87.6401 89.8812 87.7603 89.8812C87.8599 89.8812 87.9316 89.8973 87.9756 89.9296C88.0225 89.9589 88.0459 90.0072 88.0459 90.0746C88.0459 90.1127 88.043 90.1434 88.0371 90.1669L87.791 91.5643C87.7734 91.6669 87.7354 91.7401 87.6768 91.7841C87.6211 91.828 87.5332 91.85 87.4131 91.85C87.3105 91.85 87.2358 91.8353 87.189 91.806C87.145 91.7738 87.123 91.7225 87.123 91.6522C87.123 91.6346 87.126 91.6053 87.1318 91.5643L87.2021 91.1644H86.1035L85.7871 92.9574H88.2261L88.4062 91.951C88.4238 91.8485 88.4604 91.7753 88.5161 91.7313C88.5747 91.6874 88.6641 91.6654 88.7842 91.6654C88.8867 91.6654 88.96 91.6815 89.0039 91.7137C89.0508 91.743 89.0742 91.7928 89.0742 91.8632C89.0742 91.8807 89.0713 91.91 89.0654 91.951L88.8325 93.2562C88.8149 93.3646 88.7812 93.4423 88.7314 93.4891C88.6816 93.5331 88.6069 93.5551 88.5073 93.5551H84.5786C84.4966 93.5551 84.4365 93.5404 84.3984 93.5111C84.3604 93.4789 84.3413 93.4276 84.3413 93.3573C84.3413 93.3368 84.3442 93.3031 84.3501 93.2562C84.3706 93.1478 84.4058 93.0717 84.4556 93.0277C84.5054 92.9808 84.5801 92.9574 84.6797 92.9574H85.1279L85.8398 88.9364H85.3916C85.3096 88.9364 85.2495 88.9218 85.2114 88.8925C85.1763 88.8632 85.1587 88.8134 85.1587 88.743C85.1587 88.6991 85.1616 88.6639 85.1675 88.6376C85.188 88.5292 85.2231 88.453 85.2729 88.4091C85.3228 88.3622 85.3975 88.3387 85.4971 88.3387H89.3379ZM93.0645 88.3387C93.1816 88.3387 93.271 88.3622 93.3325 88.4091C93.397 88.453 93.438 88.5248 93.4556 88.6244L94.2422 92.9574H94.5234C94.6055 92.9574 94.6641 92.972 94.6992 93.0013C94.7373 93.0306 94.7563 93.0804 94.7563 93.1508C94.7563 93.1947 94.7534 93.2299 94.7476 93.2562C94.73 93.3646 94.6963 93.4423 94.6465 93.4891C94.5967 93.5331 94.522 93.5551 94.4224 93.5551H92.8667C92.7847 93.5551 92.7246 93.5404 92.6865 93.5111C92.6484 93.4789 92.6294 93.4276 92.6294 93.3573C92.6294 93.3368 92.6323 93.3031 92.6382 93.2562C92.6587 93.1478 92.6938 93.0717 92.7437 93.0277C92.7935 92.9808 92.8682 92.9574 92.9678 92.9574H93.583L93.4072 91.9115H91.2759L90.7266 92.9574H91.2363C91.3184 92.9574 91.377 92.972 91.4121 93.0013C91.4502 93.0306 91.4692 93.0804 91.4692 93.1508C91.4692 93.1947 91.4663 93.2299 91.4604 93.2562C91.4429 93.3646 91.4092 93.4423 91.3594 93.4891C91.3096 93.5331 91.2349 93.5551 91.1353 93.5551H89.6675C89.5854 93.5551 89.5254 93.5404 89.4873 93.5111C89.4492 93.4789 89.4302 93.4276 89.4302 93.3573C89.4302 93.3368 89.4331 93.3031 89.439 93.2562C89.4595 93.1478 89.4946 93.0717 89.5444 93.0277C89.5942 92.9808 89.6689 92.9574 89.7686 92.9574H90.0015L92.168 88.9364H91.3594C91.2773 88.9364 91.2173 88.9218 91.1792 88.8925C91.144 88.8632 91.1265 88.8134 91.1265 88.743C91.1265 88.6991 91.1294 88.6639 91.1353 88.6376C91.1558 88.5292 91.1909 88.453 91.2407 88.4091C91.2905 88.3622 91.3652 88.3387 91.4648 88.3387H93.0645ZM92.8315 88.9364L91.5879 91.3138H93.3105L92.915 88.9364H92.8315ZM100.245 88.3387C100.327 88.3387 100.386 88.3534 100.421 88.3827C100.459 88.412 100.478 88.4618 100.478 88.5321C100.478 88.576 100.475 88.6112 100.469 88.6376L100.175 90.2943C100.157 90.3969 100.119 90.4701 100.061 90.514C100.005 90.558 99.917 90.58 99.7969 90.58C99.6943 90.58 99.6196 90.5653 99.5728 90.536C99.5288 90.5038 99.5068 90.4525 99.5068 90.3822C99.5068 90.3646 99.5098 90.3353 99.5156 90.2943L99.7573 88.9364H98.584L97.8721 92.9574H98.9531C99.0352 92.9574 99.0938 92.972 99.1289 93.0013C99.167 93.0306 99.186 93.0804 99.186 93.1508C99.186 93.1947 99.1831 93.2299 99.1772 93.2562C99.1597 93.3646 99.126 93.4423 99.0762 93.4891C99.0264 93.5331 98.9517 93.5551 98.8521 93.5551H96.1187C96.0366 93.5551 95.9766 93.5404 95.9385 93.5111C95.9004 93.4789 95.8813 93.4276 95.8813 93.3573C95.8813 93.3368 95.8843 93.3031 95.8901 93.2562C95.9106 93.1478 95.9458 93.0717 95.9956 93.0277C96.0454 92.9808 96.1201 92.9574 96.2197 92.9574H97.2129L97.9248 88.9364H96.7515L96.5098 90.2943C96.4922 90.3969 96.4541 90.4701 96.3955 90.514C96.3398 90.558 96.252 90.58 96.1318 90.58C96.0293 90.58 95.9546 90.5653 95.9077 90.536C95.8638 90.5038 95.8418 90.4525 95.8418 90.3822C95.8418 90.3646 95.8447 90.3353 95.8506 90.2943L96.145 88.6376C96.1655 88.5292 96.2007 88.453 96.2505 88.4091C96.3003 88.3622 96.375 88.3387 96.4746 88.3387H100.245Z" fill="white"/>
</svg>
