<svg width="87" height="74" viewBox="0 0 87 74" fill="none" xmlns="http://www.w3.org/2000/svg">
<path d="M11.5664 4.83203C11.8867 4.83203 12.1133 4.89062 12.2461 5.00781C12.3789 5.125 12.4453 5.32031 12.4453 5.59375V8.99219C12.4453 9.26562 12.3789 9.46094 12.2461 9.57812C12.1133 9.69531 11.8867 9.75391 11.5664 9.75391C11.2461 9.75391 11.0195 9.69531 10.8867 9.57812C10.7539 9.46094 10.6875 9.26562 10.6875 8.99219C10.6875 8.52344 10.5586 8.10547 10.3008 7.73828C10.0508 7.37109 9.67969 7.08594 9.1875 6.88281C8.69531 6.67188 8.10938 6.56641 7.42969 6.56641C6.5625 6.56641 5.79297 6.78906 5.12109 7.23438C4.45703 7.67969 3.9375 8.31641 3.5625 9.14453C3.1875 9.97266 3 10.9414 3 12.0508C3 13.1602 3.17578 14.1289 3.52734 14.957C3.88672 15.7773 4.39062 16.4102 5.03906 16.8555C5.69531 17.3008 6.45312 17.5234 7.3125 17.5234C8.67969 17.5234 9.84766 17.3008 10.8164 16.8555V14.1953H7.92188C7.65625 14.1953 7.46484 14.1367 7.34766 14.0195C7.23828 13.8945 7.18359 13.6875 7.18359 13.3984C7.18359 13.1094 7.23828 12.9062 7.34766 12.7891C7.46484 12.6641 7.65625 12.6016 7.92188 12.6016H12.9492C13.2148 12.6016 13.4023 12.6641 13.5117 12.7891C13.6289 12.9062 13.6875 13.1094 13.6875 13.3984C13.6875 13.6875 13.6289 13.8945 13.5117 14.0195C13.4023 14.1367 13.2148 14.1953 12.9492 14.1953H12.5742V17.3242C12.5742 17.707 12.4336 17.9766 12.1523 18.1328C11.5117 18.5 10.7734 18.7812 9.9375 18.9766C9.10156 19.1641 8.22656 19.2578 7.3125 19.2578C6.09375 19.2578 5.01562 18.9609 4.07812 18.3672C3.14844 17.7656 2.42578 16.9219 1.91016 15.8359C1.40234 14.7422 1.14844 13.4805 1.14844 12.0508C1.14844 10.6289 1.41016 9.37109 1.93359 8.27734C2.46484 7.18359 3.19531 6.33594 4.125 5.73438C5.0625 5.13281 6.125 4.83203 7.3125 4.83203C8.04688 4.83203 8.69531 4.94922 9.25781 5.18359C9.82812 5.41016 10.3047 5.73828 10.6875 6.16797V5.59375C10.6875 5.32031 10.7539 5.125 10.8867 5.00781C11.0195 4.89062 11.2461 4.83203 11.5664 4.83203ZM21.9961 5.08984C22.9727 5.08984 23.8086 5.25391 24.5039 5.58203C25.207 5.91016 25.7383 6.37109 26.0977 6.96484C26.4648 7.55859 26.6484 8.25 26.6484 9.03906C26.6484 9.92969 26.3594 10.6836 25.7812 11.3008C25.2031 11.918 24.4102 12.3398 23.4023 12.5664C23.8398 12.7383 24.2031 13.0156 24.4922 13.3984C24.7344 13.7188 24.9414 14.0391 25.1133 14.3594C25.2852 14.6719 25.4766 15.0586 25.6875 15.5195C25.9062 15.9961 26.0742 16.3438 26.1914 16.5625C26.4961 17.125 26.8477 17.4062 27.2461 17.4062H27.5742C27.8398 17.4062 28.0273 17.4688 28.1367 17.5938C28.2539 17.7109 28.3125 17.9141 28.3125 18.2031C28.3125 18.4922 28.2539 18.6992 28.1367 18.8242C28.0273 18.9414 27.8398 19 27.5742 19H26.7305C26.2617 19 25.8633 18.8789 25.5352 18.6367C25.2148 18.3867 24.9023 17.9648 24.5977 17.3711C24.4258 17.0273 24.2148 16.5742 23.9648 16.0117C23.7305 15.4961 23.5391 15.0977 23.3906 14.8164C23.25 14.5273 23.0781 14.2422 22.875 13.9609C22.6406 13.6328 22.3594 13.3867 22.0312 13.2227C21.7031 13.0508 21.3086 12.9648 20.8477 12.9648H19.2539V17.4062H20.7773C21.043 17.4062 21.2305 17.4688 21.3398 17.5938C21.457 17.7109 21.5156 17.9141 21.5156 18.2031C21.5156 18.4922 21.457 18.6992 21.3398 18.8242C21.2305 18.9414 21.043 19 20.7773 19H16.0664C15.8008 19 15.6094 18.9414 15.4922 18.8242C15.3828 18.6992 15.3281 18.4922 15.3281 18.2031C15.3281 17.9141 15.3828 17.7109 15.4922 17.5938C15.6094 17.4688 15.8008 17.4062 16.0664 17.4062H17.4961V6.68359H16.0664C15.8008 6.68359 15.6094 6.625 15.4922 6.50781C15.3828 6.38281 15.3281 6.17578 15.3281 5.88672C15.3281 5.59766 15.3828 5.39453 15.4922 5.27734C15.6094 5.15234 15.8008 5.08984 16.0664 5.08984H21.9961ZM19.2539 11.3711H21.6328C23.7422 11.3711 24.7969 10.5938 24.7969 9.03906C24.7969 8.28906 24.5312 7.71094 24 7.30469C23.4688 6.89063 22.7188 6.68359 21.75 6.68359H19.2539V11.3711ZM35.9766 4.83203C37.1953 4.83203 38.2695 5.13281 39.1992 5.73438C40.1367 6.33594 40.8594 7.18359 41.3672 8.27734C41.8828 9.36328 42.1406 10.6211 42.1406 12.0508C42.1406 13.4805 41.8828 14.7422 41.3672 15.8359C40.8594 16.9219 40.1367 17.7656 39.1992 18.3672C38.2695 18.9609 37.1953 19.2578 35.9766 19.2578C34.7578 19.2578 33.6797 18.9609 32.7422 18.3672C31.8125 17.7656 31.0898 16.9219 30.5742 15.8359C30.0664 14.7422 29.8125 13.4805 29.8125 12.0508C29.8125 10.6211 30.0664 9.36328 30.5742 8.27734C31.0898 7.18359 31.8125 6.33594 32.7422 5.73438C33.6797 5.13281 34.7578 4.83203 35.9766 4.83203ZM35.9766 6.56641C35.1172 6.56641 34.3594 6.78906 33.7031 7.23438C33.0547 7.67969 32.5508 8.31641 32.1914 9.14453C31.8398 9.97266 31.6641 10.9414 31.6641 12.0508C31.6641 13.1602 31.8398 14.1289 32.1914 14.957C32.5508 15.7773 33.0547 16.4102 33.7031 16.8555C34.3594 17.3008 35.1172 17.5234 35.9766 17.5234C36.8359 17.5234 37.5898 17.3008 38.2383 16.8555C38.8945 16.4102 39.3984 15.7773 39.75 14.957C40.1094 14.1289 40.2891 13.1602 40.2891 12.0508C40.2891 10.9414 40.1094 9.97266 39.75 9.14453C39.3984 8.31641 38.8945 7.67969 38.2383 7.23438C37.5898 6.78906 36.8359 6.56641 35.9766 6.56641ZM50.3672 4.83203C51.5859 4.83203 52.6602 5.13281 53.5898 5.73438C54.5273 6.33594 55.25 7.18359 55.7578 8.27734C56.2734 9.36328 56.5312 10.6211 56.5312 12.0508C56.5312 13.4805 56.2734 14.7422 55.7578 15.8359C55.25 16.9219 54.5273 17.7656 53.5898 18.3672C52.6602 18.9609 51.5859 19.2578 50.3672 19.2578C49.1484 19.2578 48.0703 18.9609 47.1328 18.3672C46.2031 17.7656 45.4805 16.9219 44.9648 15.8359C44.457 14.7422 44.2031 13.4805 44.2031 12.0508C44.2031 10.6211 44.457 9.36328 44.9648 8.27734C45.4805 7.18359 46.2031 6.33594 47.1328 5.73438C48.0703 5.13281 49.1484 4.83203 50.3672 4.83203ZM50.3672 6.56641C49.5078 6.56641 48.75 6.78906 48.0938 7.23438C47.4453 7.67969 46.9414 8.31641 46.582 9.14453C46.2305 9.97266 46.0547 10.9414 46.0547 12.0508C46.0547 13.1602 46.2305 14.1289 46.582 14.957C46.9414 15.7773 47.4453 16.4102 48.0938 16.8555C48.75 17.3008 49.5078 17.5234 50.3672 17.5234C51.2266 17.5234 51.9805 17.3008 52.6289 16.8555C53.2852 16.4102 53.7891 15.7773 54.1406 14.957C54.5 14.1289 54.6797 13.1602 54.6797 12.0508C54.6797 10.9414 54.5 9.97266 54.1406 9.14453C53.7891 8.31641 53.2852 7.67969 52.6289 7.23438C51.9805 6.78906 51.2266 6.56641 50.3672 6.56641ZM71.0977 5.08984C71.3633 5.08984 71.5508 5.15234 71.6602 5.27734C71.7773 5.39453 71.8359 5.59766 71.8359 5.88672C71.8359 6.17578 71.7773 6.38281 71.6602 6.50781C71.5508 6.625 71.3633 6.68359 71.0977 6.68359H70.1953L65.9883 18.4961C65.8867 18.7695 65.7344 18.9648 65.5312 19.082C65.3359 19.1992 65.0664 19.2578 64.7227 19.2578C64.3867 19.2578 64.1172 19.1953 63.9141 19.0703C63.7188 18.9531 63.5742 18.7617 63.4805 18.4961L59.3086 6.68359H58.418C58.1523 6.68359 57.9609 6.625 57.8438 6.50781C57.7344 6.38281 57.6797 6.17578 57.6797 5.88672C57.6797 5.59766 57.7344 5.39453 57.8438 5.27734C57.9609 5.15234 58.1523 5.08984 58.418 5.08984H62.8008C63.0664 5.08984 63.2539 5.15234 63.3633 5.27734C63.4805 5.39453 63.5391 5.59766 63.5391 5.88672C63.5391 6.17578 63.4805 6.38281 63.3633 6.50781C63.2539 6.625 63.0664 6.68359 62.8008 6.68359H61.1484L64.7344 17.043L68.3555 6.68359H67.1836C66.918 6.68359 66.7266 6.625 66.6094 6.50781C66.5 6.38281 66.4453 6.17578 66.4453 5.88672C66.4453 5.59766 66.5 5.39453 66.6094 5.27734C66.7266 5.15234 66.918 5.08984 67.1836 5.08984H71.0977ZM83.9648 13.9609C84.2852 13.9609 84.5117 14.0195 84.6445 14.1367C84.7773 14.2539 84.8438 14.4492 84.8438 14.7227V18.2031C84.8438 18.4922 84.7852 18.6992 84.668 18.8242C84.5586 18.9414 84.3711 19 84.1055 19H73.6289C73.3633 19 73.1719 18.9414 73.0547 18.8242C72.9453 18.6992 72.8906 18.4922 72.8906 18.2031C72.8906 17.9141 72.9453 17.7109 73.0547 17.5938C73.1719 17.4688 73.3633 17.4062 73.6289 17.4062H74.8242V6.68359H73.6289C73.3633 6.68359 73.1719 6.625 73.0547 6.50781C72.9453 6.38281 72.8906 6.17578 72.8906 5.88672C72.8906 5.59766 72.9453 5.39453 73.0547 5.27734C73.1719 5.15234 73.3633 5.08984 73.6289 5.08984H83.8711C84.1367 5.08984 84.3242 5.15234 84.4336 5.27734C84.5508 5.39453 84.6094 5.59766 84.6094 5.88672V8.86328C84.6094 9.13672 84.543 9.33203 84.4102 9.44922C84.2773 9.56641 84.0508 9.625 83.7305 9.625C83.4102 9.625 83.1836 9.56641 83.0508 9.44922C82.918 9.33203 82.8516 9.13672 82.8516 8.86328V6.68359H76.582V11.0312H79.6055V9.96484C79.6055 9.69141 79.6641 9.49609 79.7812 9.37891C79.9062 9.26172 80.125 9.20312 80.4375 9.20312C80.75 9.20312 80.9648 9.26172 81.082 9.37891C81.207 9.49609 81.2695 9.69141 81.2695 9.96484V13.6914C81.2695 13.9648 81.207 14.1602 81.082 14.2773C80.9648 14.3945 80.75 14.4531 80.4375 14.4531C80.125 14.4531 79.9062 14.3945 79.7812 14.2773C79.6641 14.1602 79.6055 13.9648 79.6055 13.6914V12.625H76.582V17.4062H83.0859V14.7227C83.0859 14.4492 83.1523 14.2539 83.2852 14.1367C83.418 14.0195 83.6445 13.9609 83.9648 13.9609Z" fill="black"/>
<path d="M63.4318 41.1826H65.0702V44.9274H63.4318V41.1826ZM60.2032 46.0239H61.8416V40.0861H60.2032V46.0239ZM57.0289 49.0952H58.6673V37.0148H57.0289V49.0952ZM54.0112 51.4651H55.6496V34.7554H54.0112V51.4611V51.4651ZM50.7806 47.3845H52.419V38.7255H50.7806V47.3845ZM47.4988 53.9365H49.1372V31.8029H47.4936V53.9365H47.4988ZM44.2692 57.11H45.9076V29H44.2692V57.11ZM41.0948 52.7703H42.7332V33.3396H41.0948V52.7704V52.7703ZM37.8109 47.2524H39.4493V39.0622H37.8109V47.2524ZM34.6367 45.3H36.2751V40.8028H34.6367V45.3074V45.3ZM31.4623 47.7059H33.1007V38.4009H31.4623V47.7089V47.7059ZM28.3392 52.2103H29.9776V33.3673H28.3393V52.2135L28.3392 52.2103ZM25.1649 49.3316H26.8033V36.6166H25.1649V49.3347V49.3316ZM21.9302 46.0239H23.5686V40.0861H21.9302V46.0239Z" fill="black"/>
<path d="M8.21191 64.8937C8.29395 64.8937 8.35254 64.9083 8.3877 64.9376C8.42578 64.9669 8.44482 65.0167 8.44482 65.087C8.44482 65.131 8.44189 65.1661 8.43604 65.1925L8.22949 66.3527C8.21191 66.4552 8.17383 66.5284 8.11523 66.5724C8.05957 66.6163 7.97168 66.6383 7.85156 66.6383C7.74902 66.6383 7.67432 66.6237 7.62744 66.5944C7.5835 66.5621 7.56152 66.5109 7.56152 66.4406C7.56152 66.423 7.56445 66.3937 7.57031 66.3527L7.72412 65.4913H5.37305L5.06982 67.2096H6.16846L6.23877 66.8097C6.25928 66.7072 6.29736 66.6339 6.35303 66.59C6.41162 66.546 6.50098 66.524 6.62109 66.524C6.7207 66.524 6.79248 66.5402 6.83643 66.5724C6.8833 66.6017 6.90674 66.65 6.90674 66.7174C6.90674 66.7555 6.90381 66.7863 6.89795 66.8097L6.65186 68.2072C6.63428 68.3097 6.59619 68.3829 6.5376 68.4269C6.48193 68.4708 6.39404 68.4928 6.27393 68.4928C6.17139 68.4928 6.09668 68.4781 6.0498 68.4489C6.00586 68.4166 5.98389 68.3654 5.98389 68.295C5.98389 68.2775 5.98682 68.2482 5.99268 68.2072L6.06299 67.8073H4.96436L4.66113 69.5123H5.68066C5.7627 69.5123 5.82129 69.527 5.85645 69.5563C5.89453 69.5856 5.91357 69.6354 5.91357 69.7057C5.91357 69.7496 5.91064 69.7848 5.90479 69.8112C5.88721 69.9196 5.85352 69.9972 5.80371 70.0441C5.75391 70.088 5.6792 70.11 5.57959 70.11H3.3208C3.23877 70.11 3.17871 70.0953 3.14062 70.066C3.10254 70.0338 3.0835 69.9825 3.0835 69.9122C3.0835 69.8917 3.08643 69.858 3.09229 69.8112C3.11279 69.7028 3.14795 69.6266 3.19775 69.5826C3.24756 69.5358 3.32227 69.5123 3.42188 69.5123H4.00195L4.71387 65.4913H4.13379C4.05176 65.4913 3.9917 65.4767 3.95361 65.4474C3.91846 65.4181 3.90088 65.3683 3.90088 65.298C3.90088 65.254 3.90381 65.2189 3.90967 65.1925C3.93018 65.0841 3.96533 65.0079 4.01514 64.964C4.06494 64.9171 4.13965 64.8937 4.23926 64.8937H8.21191ZM13.4766 64.8937C13.5586 64.8937 13.6172 64.9083 13.6523 64.9376C13.6904 64.9669 13.7095 65.0167 13.7095 65.087C13.7095 65.131 13.7065 65.1661 13.7007 65.1925L13.5029 66.3087C13.4854 66.4113 13.4473 66.4845 13.3887 66.5284C13.333 66.5724 13.2451 66.5944 13.125 66.5944C13.0225 66.5944 12.9478 66.5797 12.9009 66.5504C12.8569 66.5182 12.835 66.4669 12.835 66.3966C12.835 66.379 12.8379 66.3497 12.8438 66.3087L12.9888 65.4913H10.6377L10.3477 67.1217H11.4463L11.5166 66.7218C11.5371 66.6193 11.5752 66.546 11.6309 66.5021C11.6895 66.4581 11.7788 66.4362 11.8989 66.4362C11.9985 66.4362 12.0703 66.4523 12.1143 66.4845C12.1611 66.5138 12.1846 66.5621 12.1846 66.6295C12.1846 66.6676 12.1816 66.6984 12.1758 66.7218L11.9297 68.1193C11.9121 68.2218 11.874 68.295 11.8154 68.339C11.7598 68.3829 11.6719 68.4049 11.5518 68.4049C11.4492 68.4049 11.3745 68.3903 11.3276 68.361C11.2837 68.3287 11.2617 68.2775 11.2617 68.2072C11.2617 68.1896 11.2646 68.1603 11.2705 68.1193L11.3408 67.7194H10.2422L9.92578 69.5123H12.3647L12.5449 68.506C12.5625 68.4034 12.5991 68.3302 12.6548 68.2863C12.7134 68.2423 12.8027 68.2203 12.9229 68.2203C13.0254 68.2203 13.0986 68.2365 13.1426 68.2687C13.1895 68.298 13.2129 68.3478 13.2129 68.4181C13.2129 68.4357 13.21 68.465 13.2041 68.506L12.9712 69.8112C12.9536 69.9196 12.9199 69.9972 12.8701 70.0441C12.8203 70.088 12.7456 70.11 12.646 70.11H8.71729C8.63525 70.11 8.5752 70.0953 8.53711 70.066C8.49902 70.0338 8.47998 69.9825 8.47998 69.9122C8.47998 69.8917 8.48291 69.858 8.48877 69.8112C8.50928 69.7028 8.54443 69.6266 8.59424 69.5826C8.64404 69.5358 8.71875 69.5123 8.81836 69.5123H9.2666L9.97852 65.4913H9.53027C9.44824 65.4913 9.38818 65.4767 9.3501 65.4474C9.31494 65.4181 9.29736 65.3683 9.29736 65.298C9.29736 65.254 9.30029 65.2189 9.30615 65.1925C9.32666 65.0841 9.36182 65.0079 9.41162 64.964C9.46143 64.9171 9.53613 64.8937 9.63574 64.8937H13.4766ZM18.873 64.8937C18.9551 64.8937 19.0137 64.9083 19.0488 64.9376C19.0869 64.9669 19.106 65.0167 19.106 65.087C19.106 65.131 19.103 65.1661 19.0972 65.1925L18.8994 66.3087C18.8818 66.4113 18.8438 66.4845 18.7852 66.5284C18.7295 66.5724 18.6416 66.5944 18.5215 66.5944C18.4189 66.5944 18.3442 66.5797 18.2974 66.5504C18.2534 66.5182 18.2314 66.4669 18.2314 66.3966C18.2314 66.379 18.2344 66.3497 18.2402 66.3087L18.3853 65.4913H16.0342L15.7441 67.1217H16.8428L16.9131 66.7218C16.9336 66.6193 16.9717 66.546 17.0273 66.5021C17.0859 66.4581 17.1753 66.4362 17.2954 66.4362C17.395 66.4362 17.4668 66.4523 17.5107 66.4845C17.5576 66.5138 17.5811 66.5621 17.5811 66.6295C17.5811 66.6676 17.5781 66.6984 17.5723 66.7218L17.3262 68.1193C17.3086 68.2218 17.2705 68.295 17.2119 68.339C17.1562 68.3829 17.0684 68.4049 16.9482 68.4049C16.8457 68.4049 16.771 68.3903 16.7241 68.361C16.6802 68.3287 16.6582 68.2775 16.6582 68.2072C16.6582 68.1896 16.6611 68.1603 16.667 68.1193L16.7373 67.7194H15.6387L15.3223 69.5123H17.7612L17.9414 68.506C17.959 68.4034 17.9956 68.3302 18.0513 68.2863C18.1099 68.2423 18.1992 68.2203 18.3193 68.2203C18.4219 68.2203 18.4951 68.2365 18.5391 68.2687C18.5859 68.298 18.6094 68.3478 18.6094 68.4181C18.6094 68.4357 18.6064 68.465 18.6006 68.506L18.3677 69.8112C18.3501 69.9196 18.3164 69.9972 18.2666 70.0441C18.2168 70.088 18.1421 70.11 18.0425 70.11H14.1138C14.0317 70.11 13.9717 70.0953 13.9336 70.066C13.8955 70.0338 13.8765 69.9825 13.8765 69.9122C13.8765 69.8917 13.8794 69.858 13.8853 69.8112C13.9058 69.7028 13.9409 69.6266 13.9907 69.5826C14.0405 69.5358 14.1152 69.5123 14.2148 69.5123H14.6631L15.375 65.4913H14.9268C14.8447 65.4913 14.7847 65.4767 14.7466 65.4474C14.7114 65.4181 14.6938 65.3683 14.6938 65.298C14.6938 65.254 14.6968 65.2189 14.7026 65.1925C14.7231 65.0841 14.7583 65.0079 14.8081 64.964C14.8579 64.9171 14.9326 64.8937 15.0322 64.8937H18.873ZM22.8633 64.8937C22.9453 64.8937 23.0039 64.9083 23.0391 64.9376C23.0771 64.9669 23.0962 65.0167 23.0962 65.087C23.0962 65.131 23.0933 65.1661 23.0874 65.1925C23.0669 65.3009 23.0317 65.3785 22.9819 65.4254C22.9321 65.4694 22.8574 65.4913 22.7578 65.4913H21.6943L20.9824 69.5123H23.1577L23.4126 68.0665C23.4331 67.964 23.4712 67.8907 23.5269 67.8468C23.5854 67.8029 23.6748 67.7809 23.7949 67.7809C23.8945 67.7809 23.9663 67.797 24.0103 67.8292C24.0571 67.8585 24.0806 67.9069 24.0806 67.9742C24.0806 68.0123 24.0776 68.0431 24.0718 68.0665L23.7642 69.8112C23.7466 69.9196 23.7129 69.9972 23.6631 70.0441C23.6133 70.088 23.5386 70.11 23.439 70.11H19.5103C19.4282 70.11 19.3682 70.0953 19.3301 70.066C19.292 70.0338 19.2729 69.9825 19.2729 69.9122C19.2729 69.8917 19.2759 69.858 19.2817 69.8112C19.3022 69.7028 19.3374 69.6266 19.3872 69.5826C19.437 69.5358 19.5117 69.5123 19.6113 69.5123H20.3232L21.0352 65.4913H20.3232C20.2412 65.4913 20.1812 65.4767 20.1431 65.4474C20.1079 65.4181 20.0903 65.3683 20.0903 65.298C20.0903 65.254 20.0933 65.2189 20.0991 65.1925C20.1196 65.0841 20.1548 65.0079 20.2046 64.964C20.2544 64.9171 20.3291 64.8937 20.4287 64.8937H22.8633ZM40.5732 64.8937C40.6553 64.8937 40.7139 64.9083 40.749 64.9376C40.7871 64.9669 40.8062 65.0167 40.8062 65.087C40.8062 65.131 40.8032 65.1661 40.7974 65.1925L40.5029 66.8492C40.4854 66.9518 40.4473 67.025 40.3887 67.069C40.333 67.1129 40.2451 67.1349 40.125 67.1349C40.0225 67.1349 39.9478 67.1202 39.9009 67.0909C39.8569 67.0587 39.835 67.0074 39.835 66.9371C39.835 66.9196 39.8379 66.8903 39.8438 66.8492L40.0854 65.4913H38.9121L38.2002 69.5123H39.2812C39.3633 69.5123 39.4219 69.527 39.457 69.5563C39.4951 69.5856 39.5142 69.6354 39.5142 69.7057C39.5142 69.7496 39.5112 69.7848 39.5054 69.8112C39.4878 69.9196 39.4541 69.9972 39.4043 70.0441C39.3545 70.088 39.2798 70.11 39.1802 70.11H36.4468C36.3647 70.11 36.3047 70.0953 36.2666 70.066C36.2285 70.0338 36.2095 69.9825 36.2095 69.9122C36.2095 69.8917 36.2124 69.858 36.2183 69.8112C36.2388 69.7028 36.2739 69.6266 36.3237 69.5826C36.3735 69.5358 36.4482 69.5123 36.5479 69.5123H37.541L38.2529 65.4913H37.0796L36.8379 66.8492C36.8203 66.9518 36.7822 67.025 36.7236 67.069C36.668 67.1129 36.5801 67.1349 36.46 67.1349C36.3574 67.1349 36.2827 67.1202 36.2358 67.0909C36.1919 67.0587 36.1699 67.0074 36.1699 66.9371C36.1699 66.9196 36.1729 66.8903 36.1787 66.8492L36.4731 65.1925C36.4937 65.0841 36.5288 65.0079 36.5786 64.964C36.6284 64.9171 36.7031 64.8937 36.8027 64.8937H40.5732ZM46.1543 64.8937C46.2363 64.8937 46.2949 64.9083 46.3301 64.9376C46.3682 64.9669 46.3872 65.0167 46.3872 65.087C46.3872 65.131 46.3843 65.1661 46.3784 65.1925C46.3579 65.3009 46.3228 65.3785 46.2729 65.4254C46.2231 65.4694 46.1484 65.4913 46.0488 65.4913H45.7324L45.0205 69.5123H45.3369C45.4189 69.5123 45.4775 69.527 45.5127 69.5563C45.5508 69.5856 45.5698 69.6354 45.5698 69.7057C45.5698 69.7496 45.5669 69.7848 45.561 69.8112C45.5435 69.9196 45.5098 69.9972 45.46 70.0441C45.4102 70.088 45.3354 70.11 45.2358 70.11H43.856C43.7739 70.11 43.7139 70.0953 43.6758 70.066C43.6377 70.0338 43.6187 69.9825 43.6187 69.9122C43.6187 69.8917 43.6216 69.858 43.6274 69.8112C43.6479 69.7028 43.6831 69.6266 43.7329 69.5826C43.7827 69.5358 43.8574 69.5123 43.957 69.5123H44.3613L44.6777 67.7194H42.4893L42.1729 69.5123H42.5771C42.6592 69.5123 42.7178 69.527 42.7529 69.5563C42.791 69.5856 42.8101 69.6354 42.8101 69.7057C42.8101 69.7496 42.8071 69.7848 42.8013 69.8112C42.7837 69.9196 42.75 69.9972 42.7002 70.0441C42.6504 70.088 42.5757 70.11 42.4761 70.11H41.0962C41.0142 70.11 40.9541 70.0953 40.916 70.066C40.8779 70.0338 40.8589 69.9825 40.8589 69.9122C40.8589 69.8917 40.8618 69.858 40.8677 69.8112C40.8882 69.7028 40.9233 69.6266 40.9731 69.5826C41.0229 69.5358 41.0977 69.5123 41.1973 69.5123H41.5137L42.2256 65.4913H41.9092C41.8271 65.4913 41.7671 65.4767 41.729 65.4474C41.6938 65.4181 41.6763 65.3683 41.6763 65.298C41.6763 65.254 41.6792 65.2189 41.6851 65.1925C41.7056 65.0841 41.7407 65.0079 41.7905 64.964C41.8403 64.9171 41.915 64.8937 42.0146 64.8937H43.3945C43.4766 64.8937 43.5352 64.9083 43.5703 64.9376C43.6084 64.9669 43.6274 65.0167 43.6274 65.087C43.6274 65.131 43.6245 65.1661 43.6187 65.1925C43.5981 65.3009 43.563 65.3785 43.5132 65.4254C43.4634 65.4694 43.3887 65.4913 43.2891 65.4913H42.8848L42.5947 67.1217H44.7832L45.0732 65.4913H44.6689C44.5869 65.4913 44.5269 65.4767 44.4888 65.4474C44.4536 65.4181 44.436 65.3683 44.436 65.298C44.436 65.254 44.439 65.2189 44.4448 65.1925C44.4653 65.0841 44.5005 65.0079 44.5503 64.964C44.6001 64.9171 44.6748 64.8937 44.7744 64.8937H46.1543ZM51.252 64.8937C51.334 64.8937 51.3926 64.9083 51.4277 64.9376C51.4658 64.9669 51.4849 65.0167 51.4849 65.087C51.4849 65.131 51.4819 65.1661 51.4761 65.1925L51.2783 66.3087C51.2607 66.4113 51.2227 66.4845 51.1641 66.5284C51.1084 66.5724 51.0205 66.5944 50.9004 66.5944C50.7979 66.5944 50.7231 66.5797 50.6763 66.5504C50.6323 66.5182 50.6104 66.4669 50.6104 66.3966C50.6104 66.379 50.6133 66.3497 50.6191 66.3087L50.7642 65.4913H48.4131L48.123 67.1217H49.2217L49.292 66.7218C49.3125 66.6193 49.3506 66.546 49.4062 66.5021C49.4648 66.4581 49.5542 66.4362 49.6743 66.4362C49.7739 66.4362 49.8457 66.4523 49.8896 66.4845C49.9365 66.5138 49.96 66.5621 49.96 66.6295C49.96 66.6676 49.957 66.6984 49.9512 66.7218L49.7051 68.1193C49.6875 68.2218 49.6494 68.295 49.5908 68.339C49.5352 68.3829 49.4473 68.4049 49.3271 68.4049C49.2246 68.4049 49.1499 68.3903 49.103 68.361C49.0591 68.3287 49.0371 68.2775 49.0371 68.2072C49.0371 68.1896 49.04 68.1603 49.0459 68.1193L49.1162 67.7194H48.0176L47.7012 69.5123H50.1401L50.3203 68.506C50.3379 68.4034 50.3745 68.3302 50.4302 68.2863C50.4888 68.2423 50.5781 68.2203 50.6982 68.2203C50.8008 68.2203 50.874 68.2365 50.918 68.2687C50.9648 68.298 50.9883 68.3478 50.9883 68.4181C50.9883 68.4357 50.9854 68.465 50.9795 68.506L50.7466 69.8112C50.729 69.9196 50.6953 69.9972 50.6455 70.0441C50.5957 70.088 50.521 70.11 50.4214 70.11H46.4927C46.4106 70.11 46.3506 70.0953 46.3125 70.066C46.2744 70.0338 46.2554 69.9825 46.2554 69.9122C46.2554 69.8917 46.2583 69.858 46.2642 69.8112C46.2847 69.7028 46.3198 69.6266 46.3696 69.5826C46.4194 69.5358 46.4941 69.5123 46.5938 69.5123H47.042L47.7539 65.4913H47.3057C47.2236 65.4913 47.1636 65.4767 47.1255 65.4474C47.0903 65.4181 47.0728 65.3683 47.0728 65.298C47.0728 65.254 47.0757 65.2189 47.0815 65.1925C47.1021 65.0841 47.1372 65.0079 47.187 64.964C47.2368 64.9171 47.3115 64.8937 47.4111 64.8937H51.252ZM65.7583 64.8937C66.2153 64.8937 66.564 65.0035 66.8042 65.2233C67.0474 65.443 67.1689 65.7418 67.1689 66.1198C67.1689 66.3951 67.0972 66.6368 66.9536 66.8448C66.813 67.0499 66.6182 67.2184 66.3691 67.3502C66.6123 67.4352 66.7998 67.5714 66.9316 67.7589C67.0664 67.9435 67.1338 68.1705 67.1338 68.4401C67.1338 68.7535 67.0591 69.0377 66.9097 69.2926C66.7603 69.5446 66.5405 69.7438 66.2505 69.8903C65.9634 70.0367 65.6191 70.11 65.2178 70.11H62.6821C62.6001 70.11 62.54 70.0953 62.502 70.066C62.4639 70.0338 62.4448 69.9825 62.4448 69.9122C62.4448 69.8917 62.4478 69.858 62.4536 69.8112C62.4741 69.7028 62.5093 69.6266 62.5591 69.5826C62.6089 69.5358 62.6836 69.5123 62.7832 69.5123H63.3193L64.0312 65.4913H63.4951C63.4131 65.4913 63.353 65.4767 63.3149 65.4474C63.2798 65.4181 63.2622 65.3683 63.2622 65.298C63.2622 65.254 63.2651 65.2189 63.271 65.1925C63.2915 65.0841 63.3267 65.0079 63.3765 64.964C63.4263 64.9171 63.501 64.8937 63.6006 64.8937H65.7583ZM64.4048 67.1173H65.3145C65.5635 67.1173 65.7773 67.0778 65.9561 66.9987C66.1348 66.9166 66.2695 66.8038 66.3604 66.6603C66.4512 66.5167 66.4966 66.3527 66.4966 66.1681C66.4966 65.7169 66.2124 65.4913 65.644 65.4913H64.6904L64.4048 67.1173ZM63.9785 69.5123H65.1431C65.5532 69.5123 65.8726 69.4171 66.1011 69.2267C66.3296 69.0363 66.4438 68.777 66.4438 68.4489C66.4438 68.1998 66.3647 68.0153 66.2065 67.8951C66.0483 67.775 65.8081 67.715 65.4858 67.715H64.2993L63.9785 69.5123ZM72.8379 64.8937C72.9199 64.8937 72.9785 64.9083 73.0137 64.9376C73.0518 64.9669 73.0708 65.0167 73.0708 65.087C73.0708 65.131 73.0679 65.1661 73.062 65.1925L72.8643 66.3087C72.8467 66.4113 72.8086 66.4845 72.75 66.5284C72.6943 66.5724 72.6064 66.5944 72.4863 66.5944C72.3838 66.5944 72.3091 66.5797 72.2622 66.5504C72.2183 66.5182 72.1963 66.4669 72.1963 66.3966C72.1963 66.379 72.1992 66.3497 72.2051 66.3087L72.3501 65.4913H69.999L69.709 67.1217H70.8076L70.8779 66.7218C70.8984 66.6193 70.9365 66.546 70.9922 66.5021C71.0508 66.4581 71.1401 66.4362 71.2603 66.4362C71.3599 66.4362 71.4316 66.4523 71.4756 66.4845C71.5225 66.5138 71.5459 66.5621 71.5459 66.6295C71.5459 66.6676 71.543 66.6984 71.5371 66.7218L71.291 68.1193C71.2734 68.2218 71.2354 68.295 71.1768 68.339C71.1211 68.3829 71.0332 68.4049 70.9131 68.4049C70.8105 68.4049 70.7358 68.3903 70.689 68.361C70.645 68.3287 70.623 68.2775 70.623 68.2072C70.623 68.1896 70.626 68.1603 70.6318 68.1193L70.7021 67.7194H69.6035L69.2871 69.5123H71.7261L71.9062 68.506C71.9238 68.4034 71.9604 68.3302 72.0161 68.2863C72.0747 68.2423 72.1641 68.2203 72.2842 68.2203C72.3867 68.2203 72.46 68.2365 72.5039 68.2687C72.5508 68.298 72.5742 68.3478 72.5742 68.4181C72.5742 68.4357 72.5713 68.465 72.5654 68.506L72.3325 69.8112C72.3149 69.9196 72.2812 69.9972 72.2314 70.0441C72.1816 70.088 72.1069 70.11 72.0073 70.11H68.0786C67.9966 70.11 67.9365 70.0953 67.8984 70.066C67.8604 70.0338 67.8413 69.9825 67.8413 69.9122C67.8413 69.8917 67.8442 69.858 67.8501 69.8112C67.8706 69.7028 67.9058 69.6266 67.9556 69.5826C68.0054 69.5358 68.0801 69.5123 68.1797 69.5123H68.6279L69.3398 65.4913H68.8916C68.8096 65.4913 68.7495 65.4767 68.7114 65.4474C68.6763 65.4181 68.6587 65.3683 68.6587 65.298C68.6587 65.254 68.6616 65.2189 68.6675 65.1925C68.688 65.0841 68.7231 65.0079 68.7729 64.964C68.8228 64.9171 68.8975 64.8937 68.9971 64.8937H72.8379ZM76.5645 64.8937C76.6816 64.8937 76.771 64.9171 76.8325 64.964C76.897 65.0079 76.938 65.0797 76.9556 65.1793L77.7422 69.5123H78.0234C78.1055 69.5123 78.1641 69.527 78.1992 69.5563C78.2373 69.5856 78.2563 69.6354 78.2563 69.7057C78.2563 69.7496 78.2534 69.7848 78.2476 69.8112C78.23 69.9196 78.1963 69.9972 78.1465 70.0441C78.0967 70.088 78.022 70.11 77.9224 70.11H76.3667C76.2847 70.11 76.2246 70.0953 76.1865 70.066C76.1484 70.0338 76.1294 69.9825 76.1294 69.9122C76.1294 69.8917 76.1323 69.858 76.1382 69.8112C76.1587 69.7028 76.1938 69.6266 76.2437 69.5826C76.2935 69.5358 76.3682 69.5123 76.4678 69.5123H77.083L76.9072 68.4664H74.7759L74.2266 69.5123H74.7363C74.8184 69.5123 74.877 69.527 74.9121 69.5563C74.9502 69.5856 74.9692 69.6354 74.9692 69.7057C74.9692 69.7496 74.9663 69.7848 74.9604 69.8112C74.9429 69.9196 74.9092 69.9972 74.8594 70.0441C74.8096 70.088 74.7349 70.11 74.6353 70.11H73.1675C73.0854 70.11 73.0254 70.0953 72.9873 70.066C72.9492 70.0338 72.9302 69.9825 72.9302 69.9122C72.9302 69.8917 72.9331 69.858 72.939 69.8112C72.9595 69.7028 72.9946 69.6266 73.0444 69.5826C73.0942 69.5358 73.1689 69.5123 73.2686 69.5123H73.5015L75.668 65.4913H74.8594C74.7773 65.4913 74.7173 65.4767 74.6792 65.4474C74.644 65.4181 74.6265 65.3683 74.6265 65.298C74.6265 65.254 74.6294 65.2189 74.6353 65.1925C74.6558 65.0841 74.6909 65.0079 74.7407 64.964C74.7905 64.9171 74.8652 64.8937 74.9648 64.8937H76.5645ZM76.3315 65.4913L75.0879 67.8688H76.8105L76.415 65.4913H76.3315ZM83.7451 64.8937C83.8271 64.8937 83.8857 64.9083 83.9209 64.9376C83.959 64.9669 83.978 65.0167 83.978 65.087C83.978 65.131 83.9751 65.1661 83.9692 65.1925L83.6748 66.8492C83.6572 66.9518 83.6191 67.025 83.5605 67.069C83.5049 67.1129 83.417 67.1349 83.2969 67.1349C83.1943 67.1349 83.1196 67.1202 83.0728 67.0909C83.0288 67.0587 83.0068 67.0074 83.0068 66.9371C83.0068 66.9196 83.0098 66.8903 83.0156 66.8492L83.2573 65.4913H82.084L81.3721 69.5123H82.4531C82.5352 69.5123 82.5938 69.527 82.6289 69.5563C82.667 69.5856 82.686 69.6354 82.686 69.7057C82.686 69.7496 82.6831 69.7848 82.6772 69.8112C82.6597 69.9196 82.626 69.9972 82.5762 70.0441C82.5264 70.088 82.4517 70.11 82.3521 70.11H79.6187C79.5366 70.11 79.4766 70.0953 79.4385 70.066C79.4004 70.0338 79.3813 69.9825 79.3813 69.9122C79.3813 69.8917 79.3843 69.858 79.3901 69.8112C79.4106 69.7028 79.4458 69.6266 79.4956 69.5826C79.5454 69.5358 79.6201 69.5123 79.7197 69.5123H80.7129L81.4248 65.4913H80.2515L80.0098 66.8492C79.9922 66.9518 79.9541 67.025 79.8955 67.069C79.8398 67.1129 79.752 67.1349 79.6318 67.1349C79.5293 67.1349 79.4546 67.1202 79.4077 67.0909C79.3638 67.0587 79.3418 67.0074 79.3418 66.9371C79.3418 66.9196 79.3447 66.8903 79.3506 66.8492L79.645 65.1925C79.6655 65.0841 79.7007 65.0079 79.7505 64.964C79.8003 64.9171 79.875 64.8937 79.9746 64.8937H83.7451Z" fill="black"/>
</svg>
